<?xml version="1.0" encoding="UTF-8"?>
<svg xmlns="http://www.w3.org/2000/svg" version="1.1" viewBox="0 0 1008 612">
  <!-- Generator: Adobe Illustrator 29.3.1, SVG Export Plug-In . SVG Version: 2.1.0 Build 151)  -->
  <defs>
    <style>
      .st0, .st1, .st2, .st3, .st4, .st5, .st6, .st7, .st8, .st9, .st10, .st11 {
        font-family: MyriadPro-Regular, 'Myriad Pro';
      }

      .st0, .st12, .st13 {
        fill: #004e7f;
      }

      .st0, .st2, .st10 {
        font-size: 10px;
      }

      .st14, .st2, .st15 {
        fill: #456b4d;
      }

      .st1 {
        font-size: 18px;
      }

      .st1, .st16, .st3, .st5, .st7 {
        fill: #fff;
      }

      .st17, .st11 {
        fill: #231f20;
      }

      .st15, .st18, .st13 {
        stroke: #231f20;
        stroke-width: .75px;
      }

      .st19 {
        opacity: .25;
      }

      .st18, .st20, .st10 {
        fill: #9f2214;
      }

      .st3 {
        font-size: 11.81px;
      }

      .st4, .st21 {
        fill: #939598;
        font-size: 11px;
      }

      .st22 {
        fill: #d4872f;
      }

      .st5 {
        font-size: 11.81px;
      }

      .st21 {
        font-family: MyriadPro-It, 'Myriad Pro';
        font-style: italic;
      }

      .st6 {
        fill: #37638d;
        font-size: 36px;
      }

      .st7, .st8 {
        font-size: 12px;
      }

      .st8, .st9 {
        fill: #f26522;
      }

      .st23 {
        stroke: #d4872f;
        stroke-width: 2px;
      }

      .st23, .st24 {
        fill: none;
      }

      .st24 {
        stroke: #58595b;
      }

      .st25 {
        fill: #010101;
      }

      .st26 {
        fill: #58595b;
      }

      .st9 {
        font-size: 21px;
      }

      .st11 {
        font-size: 30px;
      }
    </style>
  </defs>
  <g id="CreativeCommons">
    <text/>
    <text/>
    <g class="st19">
      <g>
        <circle class="st16" cx="20" cy="592" r="20"/>
        <path class="st25" d="M19.78,580.9c3.1,0,5.75,1.08,7.93,3.25,1.04,1.04,1.84,2.24,2.38,3.58.54,1.34.81,2.76.81,4.27s-.27,2.94-.8,4.27c-.54,1.33-1.33,2.5-2.37,3.52-1.08,1.07-2.31,1.89-3.69,2.46-1.37.57-2.79.85-4.26.85s-2.87-.28-4.21-.84c-1.34-.56-2.54-1.37-3.61-2.44-1.06-1.06-1.87-2.26-2.43-3.6s-.83-2.74-.83-4.22.28-2.88.84-4.23c.56-1.35,1.38-2.56,2.45-3.63,2.11-2.15,4.71-3.23,7.79-3.23ZM19.82,582.9c-2.54,0-4.67.88-6.4,2.66-.87.88-1.54,1.88-2.01,2.98-.47,1.1-.7,2.26-.7,3.46s.23,2.33.7,3.44c.47,1.1,1.14,2.09,2.01,2.95.87.87,1.86,1.53,2.95,1.98,1.1.46,2.25.68,3.45.68s2.34-.23,3.46-.7c1.12-.46,2.12-1.13,3.02-2,1.73-1.69,2.6-3.81,2.6-6.36,0-1.23-.22-2.39-.67-3.49-.45-1.1-1.1-2.07-1.96-2.93-1.78-1.79-3.93-2.68-6.44-2.68ZM19.68,590.16l-1.49.77c-.16-.33-.35-.56-.59-.69-.23-.13-.45-.2-.64-.2-.99,0-1.49.66-1.49,1.96,0,.6.12,1.07.38,1.43.25.36.62.54,1.11.54.65,0,1.1-.32,1.37-.95l1.37.7c-.29.54-.69.97-1.21,1.28-.51.31-1.08.46-1.7.46-.99,0-1.79-.3-2.4-.91-.61-.61-.91-1.45-.91-2.54s.31-1.9.92-2.52c.61-.62,1.39-.93,2.33-.93,1.38,0,2.36.53,2.95,1.6ZM26.08,590.16l-1.47.77c-.16-.33-.35-.56-.58-.69-.23-.13-.45-.2-.66-.2-.99,0-1.49.66-1.49,1.96,0,.6.12,1.07.38,1.43.25.36.62.54,1.11.54.65,0,1.1-.32,1.37-.95l1.39.7c-.3.54-.71.97-1.23,1.28-.52.31-1.08.46-1.68.46-1,0-1.81-.3-2.41-.91-.6-.61-.9-1.45-.9-2.54s.31-1.9.92-2.52c.61-.62,1.39-.93,2.33-.93,1.37,0,2.35.53,2.93,1.6Z"/>
      </g>
    </g>
  </g>
  <g id="Source">
    <text class="st21" transform="translate(36 464)"><tspan x="0" y="0">Interactive Timeline of Bible History by Shawn Handran (2007)</tspan><tspan x="0" y="13.2">Basics of the Bible by Shawn Handran (2008)</tspan><tspan x="0" y="26.4">Ryrie Study Bible (Moody Press, 1976-78)</tspan></text>
    <text class="st21" transform="translate(36 451)"><tspan x="0" y="0">Sources: </tspan></text>
  </g>
  <g id="NT_Prophecy">
    <g id="Revelation_Box">
      <rect class="st13" x="774" y="86" width="216" height="36"/>
      <text class="st5" transform="translate(876.14 100.03) scale(.97 1)"><tspan x="0" y="0">27</tspan><tspan x="-19.97" y="14.17">Revelation</tspan></text>
    </g>
    <rect class="st12" x="840.88" y="51" width="81.25" height="27" rx="4.41" ry="4.41"/>
    <text class="st1" transform="translate(846.21 70)"><tspan x="0" y="0">Prophecy</tspan></text>
    <text class="st0" transform="translate(774 131)"><tspan x="0" y="0">John the Apostle</tspan></text>
  </g>
  <g id="NT_Letters">
    <g id="Hebrews_Box">
      <rect class="st15" x="504" y="266" width="72" height="36"/>
      <text class="st5" transform="translate(532.56 280.03) scale(.97 1)"><tspan x="0" y="0">19</tspan><tspan x="-15.68" y="14.17">Hebrews</tspan></text>
    </g>
    <g id="James_Box">
      <rect class="st15" x="324" y="140" width="72" height="36"/>
      <text class="st5" transform="translate(352.55 154.03) scale(.97 1)"><tspan x="0" y="0">20</tspan><tspan x="-9.19" y="14.17">James</tspan></text>
    </g>
    <g id="_x31_Pe_Box">
      <rect class="st15" x="504" y="320" width="72" height="36"/>
      <text class="st5" transform="translate(532.56 334.03) scale(.97 1)"><tspan x="0" y="0">21</tspan><tspan x="-11.16" y="14.17">1 Peter</tspan></text>
    </g>
    <g id="_x32_Pe_Box">
      <rect class="st15" x="504" y="356" width="72" height="36"/>
      <text class="st5" transform="translate(532.56 370.03) scale(.97 1)"><tspan x="0" y="0">22</tspan><tspan x="-11.16" y="14.17">2 Peter</tspan></text>
    </g>
    <g id="_x31_Jn_Box">
      <rect class="st15" x="774" y="140" width="72" height="36"/>
      <text class="st5" transform="translate(802.55 154.03) scale(.97 1)"><tspan x="0" y="0">23</tspan><tspan x="-10.2" y="14.17">1 John</tspan></text>
    </g>
    <g id="_x32_Jn_Box">
      <rect class="st15" x="774" y="176" width="72" height="36"/>
      <text class="st5" transform="translate(802.55 190.03) scale(.97 1)"><tspan x="0" y="0">24</tspan><tspan x="-10.2" y="14.17">2 John</tspan></text>
    </g>
    <g id="_x33_Jn_Box">
      <rect class="st15" x="774" y="212" width="72" height="36"/>
      <text class="st5" transform="translate(802.55 226.03) scale(.97 1)"><tspan x="0" y="0">25</tspan><tspan x="-10.2" y="14.17">3 John</tspan></text>
    </g>
    <g id="Jude_Box">
      <rect class="st15" x="594" y="140" width="72" height="36"/>
      <text class="st5" transform="translate(622.55 154.03) scale(.97 1)"><tspan x="0" y="0">26</tspan><tspan x="-5.67" y="14.17">Jude</tspan></text>
    </g>
    <g id="Philemon_Box">
      <rect class="st15" x="414" y="464" width="72" height="36"/>
      <text class="st5" transform="translate(442.55 478.03) scale(.97 1)"><tspan x="0" y="0">18</tspan><tspan x="-17.53" y="14.17">Philemon</tspan></text>
    </g>
    <g id="Romans_Box">
      <rect class="st15" x="414" y="248" width="72" height="36"/>
      <text class="st5" transform="translate(448.49 261.03) scale(.97 1)"><tspan x="0" y="0">6</tspan><tspan x="-16.77" y="14.17">Romans</tspan></text>
    </g>
    <g id="_x31_Co_Box">
      <rect class="st15" x="414" y="176" width="72" height="36"/>
      <text class="st5" transform="translate(448.49 189.03) scale(.97 1)"><tspan x="0" y="0">7</tspan><tspan x="-29.58" y="14.17">1 Corinthians</tspan></text>
    </g>
    <g id="_x32_Co_Box">
      <rect class="st15" x="414" y="212" width="72" height="36"/>
      <text class="st5" transform="translate(448.49 225.03) scale(.97 1)"><tspan x="0" y="0">8</tspan><tspan x="-29.58" y="14.17">2 Corinthians</tspan></text>
    </g>
    <g id="Galatians_Box">
      <rect class="st15" x="414" y="140" width="72" height="36"/>
      <text class="st5" transform="translate(448.49 153.03) scale(.97 1)"><tspan x="0" y="0">9</tspan><tspan x="-19.67" y="14.17">Galatians</tspan></text>
    </g>
    <g id="Ephesians_Box">
      <rect class="st15" x="414" y="356" width="72" height="36"/>
      <text class="st5" transform="translate(445.55 369.03) scale(.97 1)"><tspan x="0" y="0">10</tspan><tspan x="-18.62" y="14.17">Ephesians</tspan></text>
    </g>
    <g id="Philippians_Box">
      <rect class="st15" x="414" y="428" width="72" height="36"/>
      <text class="st5" transform="translate(445.55 441.03) scale(.97 1)"><tspan x="0" y="0">11</tspan><tspan x="-21.08" y="14.17">Philippians</tspan></text>
    </g>
    <g id="_x31_Th_Box">
      <rect class="st15" x="414" y="284" width="72" height="36"/>
      <text class="st5" transform="translate(445.55 297.03) scale(.97 1)"><tspan x="0" y="0">13</tspan><tspan x="-13.29" y="14.17">1 Thess.</tspan></text>
    </g>
    <g id="Colossians_Box">
      <rect class="st15" x="414" y="392" width="72" height="36"/>
      <text class="st5" transform="translate(445.56 405.03) scale(.97 1)"><tspan x="0" y="0">12</tspan><tspan x="-19.76" y="14.17">Colossians</tspan></text>
    </g>
    <g id="_x32_Th_Box">
      <rect class="st15" x="414" y="320" width="72" height="36"/>
      <text class="st5" transform="translate(445.56 333.03) scale(.97 1)"><tspan x="0" y="0">14</tspan><tspan x="-13.29" y="14.17">2 Thess.</tspan></text>
    </g>
    <g id="_x32_Ti_Box">
      <rect class="st15" x="504" y="212" width="72" height="36"/>
      <text class="st5" transform="translate(535.55 225.03) scale(.97 1)"><tspan x="0" y="0">16</tspan><tspan x="-18.72" y="14.17">2 Timothy</tspan></text>
    </g>
    <g id="Titus_Box">
      <rect class="st15" x="504" y="176" width="72" height="36"/>
      <text class="st5" transform="translate(535.55 189.03) scale(.97 1)"><tspan x="0" y="0">17</tspan><tspan x="-5.8" y="14.17">Titus</tspan></text>
    </g>
    <rect class="st14" x="324" y="49.67" width="61" height="27" rx="4.41" ry="4.41"/>
    <text class="st1" transform="translate(328.83 68.07)"><tspan x="0" y="0">Letters</tspan></text>
    <g id="_x31_Ti_Box">
      <rect class="st15" x="504" y="140" width="72" height="36"/>
      <text class="st5" transform="translate(535.55 153.03) scale(.97 1)"><tspan x="0" y="0">15</tspan><tspan x="-18.72" y="14.17">1 Timothy</tspan></text>
    </g>
    <text class="st2" transform="translate(318.93 185)"><tspan x="0" y="0">Half-brother of Jesus</tspan></text>
    <text class="st2" transform="translate(594 185)"><tspan x="0" y="0">Half-brother of Jesus</tspan></text>
    <text class="st2" transform="translate(774 257)"><tspan x="0" y="0">John the Apostle</tspan></text>
    <text class="st2" transform="translate(504 401)"><tspan x="0" y="0">Peter the Apostle</tspan></text>
    <text class="st2" transform="translate(504 311)"><tspan x="0" y="0">Unknown, perhaps Paul</tspan></text>
    <text class="st2" transform="translate(504 257)"><tspan x="0" y="0">Paul the Apostle</tspan></text>
    <text class="st2" transform="translate(414 509)"><tspan x="0" y="0">Paul the Apostle</tspan></text>
  </g>
  <g id="NT_History">
    <g id="Matthew_Box">
      <rect class="st18" x="72" y="86" width="162" height="36"/>
      <text class="st3" transform="translate(150.07 99.03) scale(.97 1)"><tspan x="0" y="0">1</tspan><tspan x="-19.05" y="14.17">Matthew</tspan></text>
    </g>
    <g id="Mark_Box">
      <rect class="st18" x="162" y="140" width="72" height="36"/>
      <text class="st5" transform="translate(196.49 153.03) scale(.97 1)"><tspan x="0" y="0">2</tspan><tspan x="-9.26" y="14.17">Mark</tspan></text>
    </g>
    <g id="Luke_Box">
      <rect class="st18" x="72" y="194" width="162" height="36"/>
      <text class="st5" transform="translate(150.07 207.03) scale(.97 1)"><tspan x="0" y="0">3</tspan><tspan x="-8.74" y="14.17">Luke</tspan></text>
    </g>
    <g id="John_Box">
      <rect class="st18" x="36" y="248" width="198" height="36"/>
      <text class="st5" transform="translate(132.07 261.03) scale(.97 1)"><tspan x="0" y="0">4</tspan><tspan x="-8.95" y="14.17">John</tspan></text>
    </g>
    <g id="Acts_Box">
      <rect class="st18" x="234" y="86" width="342" height="36"/>
      <text class="st5" transform="translate(402.07 99.03) scale(.97 1)"><tspan x="0" y="0">5</tspan><tspan x="-7.52" y="14.17">Acts</tspan></text>
    </g>
    <rect class="st20" x="35.99" y="49.67" width="63.54" height="27" rx="4.41" ry="4.41"/>
    <text class="st1" transform="translate(41.1 68.7)"><tspan x="0" y="0">History</tspan></text>
    <text class="st10" transform="translate(163.66 293)"><tspan x="0" y="0">John the Apostle</tspan></text>
    <text class="st10" transform="translate(146.55 131)"><tspan x="0" y="0">Matthew the Apostle</tspan></text>
    <text class="st10" transform="translate(190.77 185)"><tspan x="0" y="0">John Mark</tspan></text>
    <text class="st10" transform="translate(72.97 239)"><tspan x="0" y="0">Luke the Physician, Companion of Paul</tspan></text>
    <text class="st10" transform="translate(414.97 131)"><tspan x="0" y="0">Luke the Physician, Companion of Paul</tspan></text>
  </g>
  <g id="NT_Timeline">
    <g>
      <line class="st24" x1="55" y1="526.5" x2="792" y2="526.5"/>
      <line class="st23" x1="777.61" y1="522" x2="777.61" y2="531"/>
      <line class="st24" x1="763.03" y1="522" x2="763.03" y2="531"/>
      <line class="st24" x1="748.64" y1="522" x2="748.64" y2="531"/>
      <line class="st24" x1="734.24" y1="522" x2="734.24" y2="531"/>
      <line class="st24" x1="719.67" y1="522" x2="719.67" y2="531"/>
      <line class="st24" x1="705.27" y1="522" x2="705.27" y2="531"/>
      <line class="st23" x1="690.88" y1="522" x2="690.88" y2="531"/>
      <line class="st24" x1="676.3" y1="522" x2="676.3" y2="531"/>
      <line class="st24" x1="661.91" y1="522" x2="661.91" y2="531"/>
      <line class="st24" x1="647.51" y1="522" x2="647.51" y2="531"/>
      <line class="st24" x1="633.12" y1="522" x2="633.12" y2="531"/>
      <line class="st24" x1="618.55" y1="522" x2="618.55" y2="531"/>
      <line class="st24" x1="604.15" y1="522" x2="604.15" y2="531"/>
      <line class="st23" x1="589.76" y1="522" x2="589.76" y2="531"/>
      <line class="st24" x1="575.18" y1="522" x2="575.18" y2="531"/>
      <line class="st24" x1="560.79" y1="522" x2="560.79" y2="531"/>
      <line class="st24" x1="546.39" y1="522" x2="546.39" y2="531"/>
      <line class="st24" x1="531.82" y1="522" x2="531.82" y2="531"/>
      <line class="st24" x1="517.42" y1="522" x2="517.42" y2="531"/>
      <line class="st23" x1="503.03" y1="522" x2="503.03" y2="531"/>
      <line class="st24" x1="488.45" y1="522" x2="488.45" y2="531"/>
      <line class="st24" x1="474.06" y1="522" x2="474.06" y2="531"/>
      <line class="st24" x1="459.67" y1="522" x2="459.67" y2="531"/>
      <line class="st24" x1="445.09" y1="522" x2="445.09" y2="531"/>
      <line class="st24" x1="430.7" y1="522" x2="430.7" y2="531"/>
      <line class="st24" x1="416.3" y1="522" x2="416.3" y2="531"/>
      <line class="st23" x1="401.91" y1="522" x2="401.91" y2="531"/>
      <line class="st24" x1="387.33" y1="522" x2="387.33" y2="531"/>
      <line class="st24" x1="372.94" y1="522" x2="372.94" y2="531"/>
      <line class="st24" x1="358.54" y1="522" x2="358.54" y2="531"/>
      <line class="st24" x1="343.97" y1="522" x2="343.97" y2="531"/>
      <line class="st24" x1="329.58" y1="522" x2="329.58" y2="531"/>
      <line class="st23" x1="315.18" y1="522" x2="315.18" y2="531"/>
      <line class="st24" x1="300.61" y1="522" x2="300.61" y2="531"/>
      <line class="st24" x1="286.21" y1="522" x2="286.21" y2="531"/>
      <line class="st24" x1="271.82" y1="522" x2="271.82" y2="531"/>
      <line class="st24" x1="257.24" y1="522" x2="257.24" y2="531"/>
      <line class="st24" x1="242.85" y1="522" x2="242.85" y2="531"/>
      <line class="st24" x1="228.45" y1="522" x2="228.45" y2="531"/>
      <line class="st23" x1="213.88" y1="522" x2="213.88" y2="531"/>
      <line class="st24" x1="199.49" y1="522" x2="199.49" y2="531"/>
      <line class="st24" x1="185.09" y1="522" x2="185.09" y2="531"/>
      <line class="st24" x1="170.7" y1="522" x2="170.7" y2="531"/>
      <line class="st24" x1="156.12" y1="522" x2="156.12" y2="531"/>
      <line class="st24" x1="141.73" y1="522" x2="141.73" y2="531"/>
      <line class="st24" x1="127.33" y1="522" x2="127.33" y2="531"/>
      <line class="st24" x1="112.76" y1="522" x2="112.76" y2="531"/>
      <line class="st24" x1="98.36" y1="522" x2="98.36" y2="531"/>
      <line class="st24" x1="83.97" y1="522" x2="83.97" y2="531"/>
      <line class="st23" x1="69.39" y1="522" x2="69.39" y2="531"/>
    </g>
    <text class="st8" transform="translate(72 365)"><tspan x="0" y="0">Birth of Jesus</tspan></text>
    <text class="st21" transform="translate(649 500)"><tspan x="0" y="0">timeline not drawn to scale</tspan></text>
    <g>
      <g>
        <line class="st17" x1="936" y1="526.5" x2="963" y2="526.5"/>
        <path class="st17" d="M969.04,526.5c-2.84,1.05-6.36,2.85-8.55,4.75l1.72-4.75-1.72-4.75c2.18,1.9,5.71,3.7,8.55,4.75Z"/>
      </g>
      <g>
        <line class="st24" x1="936" y1="526.5" x2="963" y2="526.5"/>
        <path class="st26" d="M969.04,526.5c-2.84,1.05-6.36,2.85-8.55,4.75l1.72-4.75-1.72-4.75c2.18,1.9,5.71,3.7,8.55,4.75Z"/>
      </g>
    </g>
    <text class="st8" transform="translate(36 338)"><tspan x="0" y="0">In the beginning...</tspan></text>
    <text class="st8" transform="translate(162 365)"><tspan x="0" y="0">Public</tspan><tspan x="0" y="14.4">Ministry</tspan><tspan x="0" y="28.8">of Jesus</tspan></text>
    <text class="st8" transform="translate(216 365)"><tspan x="0" y="0">Crucifixion</tspan><tspan x="0" y="14.4">Resurrection</tspan><tspan x="0" y="28.8">Ascension</tspan><tspan x="0" y="43.2">Holy Spirit</tspan></text>
    <text class="st8" transform="translate(288 365)"><tspan x="0" y="0">Taking the</tspan><tspan x="0" y="14.4">Good News</tspan><tspan x="0" y="28.8">to the world</tspan></text>
    <text class="st8" transform="translate(927 365)"><tspan x="0" y="0">New Heaven</tspan><tspan x="0" y="14.4">&amp; Earth</tspan></text>
    <text class="st8" transform="translate(864 365)"><tspan x="0" y="0">Terrible</tspan><tspan x="0" y="14.4">days</tspan></text>
    <text class="st9" transform="translate(27 404.88) rotate(-90)"><tspan x="0" y="0">Events</tspan></text>
    <g>
      <path class="st22" d="M84.75,538.46c0,4.28-1.66,7.75-3.71,7.75h-23.29c-2.05,0-3.71-3.47-3.71-7.75h0c0-4.28,1.66-7.75,3.71-7.75h23.29c2.05,0,3.71,3.47,3.71,7.75h0Z"/>
      <text class="st7" transform="translate(60.21 541.98)"><tspan x="0" y="0">4bc</tspan></text>
    </g>
    <g>
      <path class="st22" d="M228.71,538.46c0,4.28-1.66,7.75-3.71,7.75h-23.29c-2.05,0-3.71-3.47-3.71-7.75h0c0-4.28,1.66-7.75,3.71-7.75h23.29c2.05,0,3.71,3.47,3.71,7.75h0Z"/>
      <text class="st7" transform="translate(204.83 541.98)"><tspan x="0" y="0">30s</tspan></text>
    </g>
    <g>
      <path class="st22" d="M330.54,538.75c0,4.28-1.66,7.75-3.71,7.75h-23.29c-2.05,0-3.71-3.47-3.71-7.75h0c0-4.28,1.66-7.75,3.71-7.75h23.29c2.05,0,3.71,3.47,3.71,7.75h0Z"/>
      <text class="st7" transform="translate(306.65 542.27)"><tspan x="0" y="0">40s</tspan></text>
    </g>
    <g>
      <path class="st22" d="M417.27,538.75c0,4.28-1.66,7.75-3.71,7.75h-23.29c-2.05,0-3.71-3.47-3.71-7.75h0c0-4.28,1.66-7.75,3.71-7.75h23.29c2.05,0,3.71,3.47,3.71,7.75h0Z"/>
      <text class="st7" transform="translate(393.38 542.27)"><tspan x="0" y="0">50s</tspan></text>
    </g>
    <g>
      <path class="st22" d="M518.39,538.75c0,4.28-1.66,7.75-3.71,7.75h-23.29c-2.05,0-3.71-3.47-3.71-7.75h0c0-4.28,1.66-7.75,3.71-7.75h23.29c2.05,0,3.71,3.47,3.71,7.75h0Z"/>
      <text class="st7" transform="translate(494.5 542.27)"><tspan x="0" y="0">60s</tspan></text>
    </g>
    <g>
      <path class="st22" d="M605.11,538.75c0,4.28-1.66,7.75-3.71,7.75h-23.29c-2.05,0-3.71-3.47-3.71-7.75h0c0-4.28,1.66-7.75,3.71-7.75h23.29c2.05,0,3.71,3.47,3.71,7.75h0Z"/>
      <text class="st7" transform="translate(581.23 542.27)"><tspan x="0" y="0">70s</tspan></text>
    </g>
    <g>
      <path class="st22" d="M706.24,538.75c0,4.28-1.66,7.75-3.71,7.75h-23.29c-2.05,0-3.71-3.47-3.71-7.75h0c0-4.28,1.66-7.75,3.71-7.75h23.29c2.05,0,3.71,3.47,3.71,7.75h0Z"/>
      <text class="st7" transform="translate(682.35 542.27)"><tspan x="0" y="0">80s</tspan></text>
    </g>
    <g>
      <path class="st22" d="M792.96,538.75c0,4.28-1.66,7.75-3.71,7.75h-23.29c-2.05,0-3.71-3.47-3.71-7.75h0c0-4.28,1.66-7.75,3.71-7.75h23.29c2.05,0,3.71,3.47,3.71,7.75h0Z"/>
      <text class="st7" transform="translate(769.07 542.27)"><tspan x="0" y="0">90s</tspan></text>
    </g>
    <g>
      <path class="st22" d="M909.17,538.96c0,4.28-2.45,7.75-5.48,7.75h-34.38c-3.03,0-5.48-3.47-5.48-7.75h0c0-4.28,2.45-7.75,5.48-7.75h34.38c3.03,0,5.48,3.47,5.48,7.75h0Z"/>
      <text class="st7" transform="translate(867.82 542.48)"><tspan x="0" y="0">Present</tspan></text>
    </g>
    <g>
      <path class="st22" d="M963,538.96c0,4.28-2.45,7.75-5.48,7.75h-34.38c-3.03,0-5.48-3.47-5.48-7.75h0c0-4.28,2.45-7.75,5.48-7.75h34.38c3.03,0,5.48,3.47,5.48,7.75h0Z"/>
      <text class="st7" transform="translate(924.11 542.48)"><tspan x="0" y="0">Future</tspan></text>
    </g>
  </g>
  <g id="Headline">
    <text class="st6" transform="translate(45 586)"><tspan x="0" y="0">The Resurrection of Jesus is the Best Attested Event in History</tspan></text>
  </g>
  <g id="Title">
    <text class="st11" transform="translate(36 41)"><tspan x="0" y="0">New Testament Structure and Timeline</tspan></text>
    <text class="st4" transform="translate(522 41)"><tspan x="0" y="0">by Shawn Handran</tspan></text>
  </g>
</svg>